<svg width="22" height="22" viewBox="0 0 22 22" fill="none" xmlns="http://www.w3.org/2000/svg">
<path d="M19.7429 8.81427H13.1857V2.25713C13.1857 1.45251 12.5332 0.799988 11.7286 0.799988H10.2714C9.46683 0.799988 8.8143 1.45251 8.8143 2.25713V8.81427H2.25716C1.45255 8.81427 0.800018 9.4668 0.800018 10.2714V11.7286C0.800018 12.5332 1.45255 13.1857 2.25716 13.1857H8.8143V19.7428C8.8143 20.5475 9.46683 21.2 10.2714 21.2H11.7286C12.5332 21.2 13.1857 20.5475 13.1857 19.7428V13.1857H19.7429C20.5475 13.1857 21.2 12.5332 21.2 11.7286V10.2714C21.2 9.4668 20.5475 8.81427 19.7429 8.81427Z" fill="white"/>
</svg>
