<svg width="21" height="21" viewBox="0 0 21 21" fill="none" xmlns="http://www.w3.org/2000/svg">
<path d="M4.52584 1.96551L5.72063 3.67281C4.26874 4.68923 3.17871 6.14208 2.6089 7.8203C2.03909 9.49853 2.01917 11.3147 2.55204 13.005C3.08491 14.6953 4.14281 16.1718 5.57206 17.2198C7.00132 18.2678 8.72748 18.8329 10.4998 18.8329C12.2721 18.8329 13.9983 18.2678 15.4275 17.2198C16.8568 16.1718 17.9147 14.6953 18.4476 13.005C18.9804 11.3147 18.9605 9.49853 18.3907 7.8203C17.8209 6.14208 16.7309 4.68923 15.279 3.67281L16.4738 1.96551C17.8466 2.92533 18.9674 4.20245 19.7409 5.68829C20.5144 7.17414 20.9177 8.82478 20.9165 10.4999C20.9165 16.253 16.2529 20.9166 10.4998 20.9166C4.74668 20.9166 0.0831326 16.253 0.0831326 10.4999C0.0819263 8.82478 0.485205 7.17414 1.25869 5.68829C2.03217 4.20245 3.15298 2.92533 4.52584 1.96551ZM9.45813 10.4999V0.0832214H11.5415V10.4999H9.45813Z" fill="#7942FB"/>
</svg>
